<COLLADA xmlns="http://www.collada.org/2005/11/COLLADASchema" version="1.4.1">
  <asset>
    <contributor/>
    <created>2026-06-24T13:50:45.628024</created>
    <modified>2026-06-24T13:50:45.628038</modified>
    <unit name="meter" meter="1.0"/>
    <up_axis>Z_UP</up_axis>
  </asset>
  <library_effects>
    <effect id="effect_gimbal_joint" name="effect_gimbal_joint">
      <profile_COMMON>
        <technique sid="common">
          <phong>
            <emission>
              <color>0.0 0.0 0.0 1.0</color>
            </emission>
            <ambient>
              <color>0.0 0.0 0.0 1.0</color>
            </ambient>
            <diffuse>
              <color>0.6784313917160034 0.7098039388656616 0.7411764860153198 1.0</color>
            </diffuse>
            <specular>
              <color>1 1 1 1.0</color>
            </specular>
            <shininess>
              <float>0.0</float>
            </shininess>
            <reflective>
              <color>0.0 0.0 0.0 1.0</color>
            </reflective>
            <reflectivity>
              <float>0.0</float>
            </reflectivity>
            <transparent>
              <color>0.0 0.0 0.0 1.0</color>
            </transparent>
            <transparency>
              <float>1.0</float>
            </transparency>
          </phong>
        </technique>
        <extra>
          <technique profile="GOOGLEEARTH">
            <double_sided>0</double_sided>
          </technique>
        </extra>
      </profile_COMMON>
    </effect>
  </library_effects>
  <library_geometries>
    <geometry id="geometry0" name="gimbal_joint">
      <mesh>
        <source id="cubeverts-array0">
          <float_array count="1134" id="cubeverts-array0-array">-0.04105029 0.01470894 0.004812489 -0.04104362 0.0216239 -0.01074186 -0.04104031 0.03087752 0.002419457 -0.04102898 0.02388571 0.007676982 -0.04060619 0.01253228 -0.005092189 -0.04023975 0.03069858 -0.008393641 -0.04023038 0.02142231 -0.01248828 -0.04018088 0.01691128 -0.01107517 -0.04017709 0.03074091 0.006967294 -0.04017408 0.01917084 0.009394361 -0.04014155 0.005566988 0.002367231 -0.04014103 0.0052149 -0.003688378 -0.04012675 0.03188024 0.004202652 -0.04010557 0.01395491 0.006619714 -0.04010525 0.02654076 -0.01147993 -0.04010081 0.02592995 0.009141563 -0.04009874 0.01425288 -0.00940631 -0.0400889 0.007258209 -0.009047655 -0.04008764 0.03314543 -0.003139113 -0.04008686 0.02858344 -0.01171474 -0.04008591 0.0072309 0.00633747 -0.04005516 0.003028999 -0.01070409 -0.04004573 0.03318711 -0.006357215 -0.04003032 0.0256533 0.01022106 -0.03999396 0.0001282445 -0.0006740668 -0.03998773 0.003092858 0.008023862 -0.03968715 0.01394071 0.008252831 -0.03959893 0.03413223 0.001885127 -0.03934395 0.02307371 0.01071115 -0.03933554 0.01378146 -0.01096987 -0.03933223 0.018356 -0.01307043 -0.03931958 0.01870318 0.01051829 -0.03930637 0.03010683 0.00823929 -0.03927409 0.02308197 -0.01348903 -0.03926429 0.03391173 -0.004099756 -0.03926011 0.02979375 -0.01091286 -0.03921439 0.02927905 0.007986796 -0.03921371 0.01646282 0.008468055 -0.03921332 0.03311535 0.002433384 -0.03921063 0.01671604 -0.01126601 -0.03804715 0.03301491 -0.006391712 -0.03804688 0.0199738 -0.0131396 -0.03804546 0.0339665 0.00110926 -0.03804305 0.02779485 0.009347507 -0.03804194 0.01846053 0.01008975 -0.03804189 0.01625883 -0.01118072 -0.0380418 0.02998985 -0.01034048 -0.03804143 0.02336853 0.01068918 -0.03803866 0.02613154 -0.01266068 -0.03803416 0.01587696 0.008372251 -0.03756416 0.03223713 0.005797948 -0.03708371 0.02085489 -0.01382918 -0.03708339 0.01642453 0.008610333 -0.03708265 0.0165387 -0.01123151 -0.037082 0.02164544 -0.01307185 -0.03708145 0.03371616 0.001843598 -0.03708075 0.02746161 0.009385598 -0.03707518 0.03355029 -0.004898017 -0.03707506 0.02975461 -0.01080914 -0.03707369 0.0208534 0.01069355 -0.03591647 0.02995707 -0.01052032 -0.03591582 0.03424867 -0.0001975273 -0.03591526 0.02002171 -0.01313978 -0.03591236 0.01646364 -0.01123543 -0.03591216 0.02592543 -0.0126673 -0.03591201 0.03347189 -0.005463947 -0.03591151 0.0285577 0.008962154 -0.03591109 0.02368972 0.01057643 -0.0359064 0.01824588 0.01027841 -0.03590593 0.01648065 0.008540222 -0.035433 0.03223713 0.005797948 -0.03495256 0.02085489 -0.01382918 -0.03495213 0.01642383 0.008609516 -0.03495129 0.01654018 -0.01123245 -0.03495084 0.02164544 -0.01307185 -0.03495029 0.03371616 0.001843598 -0.0349496 0.02746161 0.009385598 -0.03494402 0.03355029 -0.004898018 -0.0349439 0.02975461 -0.01080914 -0.03494253 0.0208534 0.01069355 -0.03378487 0.03173207 -0.008476794 -0.03378452 0.02105806 -0.01341132 -0.0337842 0.03431232 -0.0019463 -0.03378393 0.02757523 -0.01209918 -0.03378088 0.03243468 0.005023415 -0.03378035 0.0285577 0.008962154 -0.03377993 0.02368972 0.01057643 -0.03377832 0.01671948 -0.01114686 -0.03377554 0.01652611 0.008557791 -0.03321888 0.01390453 -0.01094049 -0.03316081 0.02024961 0.01095511 -0.03282186 0.03395232 -0.004919293 -0.03282152 0.01611083 0.006042217 -0.03282098 0.02083829 -0.01383383 -0.03282088 0.02732343 -0.009545737 -0.03282082 0.03199851 -0.001964685 -0.03282064 0.0141999 0.008361457 -0.03282005 0.02866459 0.005709866 -0.03282003 0.02227064 0.008309708 -0.03281956 0.02988781 -0.01110505 -0.03281903 0.0340727 0.002211084 -0.03281902 0.01769007 -0.01029717 -0.03281862 0.01226221 -0.001104806 -0.03281564 0.02893332 0.009049768 -0.03276914 0.002216971 0.008149955 -0.0326646 0.001146065 -0.01084904 -0.03121634 -0.00132412 0.008150177 -0.03069104 0.03081422 0.003405241 -0.03068908 0.02724923 -0.009432334 -0.03068859 0.03107424 -0.0049314 -0.03068809 0.02325628 0.008252352 -0.03068792 0.01284199 -0.00446985 -0.03068789 0.02004872 -0.01090738 -0.03068786 0.01490859 0.005270381 -0.02508116 -0.02086975 0.001531528 -0.02422657 -0.02154 -0.005075911 -0.02374339 -0.01172402 -0.01068562 -0.02329067 -0.01196167 0.008249436 -0.0227609 -0.02141493 0.008175994 -0.0226297 -0.01245193 -0.01077271 -0.02242021 -0.02159596 -0.0109765 -0.01406603 -0.02233933 -0.0004903532 -0.01406094 -0.03065446 -0.0008891273 -0.01301465 0.001396968 0.03489574 -0.01298909 -0.0006962222 0.04117091 -0.01221861 -0.03120001 0.001621767 -0.01206496 -0.02134807 -0.0140622 -0.01205199 -0.02233994 -0.008864456 -0.01167272 -0.0310983 -0.006078926 -0.01138915 -0.03075933 0.007642544 -0.01138302 -0.006902198 0.044869 -0.01127141 -0.03075842 -0.009589494 -0.01127035 0.0009013185 0.04740557 -0.01122995 -0.006435719 0.03950241 -0.01100614 0.003109075 0.04260242 -0.01065339 -0.0216811 0.01157512 -0.01054258 -0.02233945 -0.003305231 -0.01053529 -0.02183948 -0.004170116 -0.0103469 -0.01539183 0.001521475 -0.01018932 -0.01539081 0.002632543 -0.01018657 -0.02217653 0.02282568 -0.01004156 -0.01371229 0.02994997 -0.009965902 0.008818077 0.03730558 -0.009813237 -0.03049831 0.024325 -0.009807437 -0.01662924 0.03607748 -0.00979836 -0.0170471 -0.01460043 -0.009729596 -0.01539206 -0.005875182 -0.009666002 -0.03121897 0.006476968 -0.009610338 0.007037543 0.0437182 -0.009086918 -0.02184047 0.004492105 -0.008915488 0.002940542 0.04806761 -0.008872725 -0.006412821 0.03421156 -0.00871821 -0.009003688 0.0441872 -0.008498862 0.005378978 0.03804303 -0.008218324 -0.02233951 0.006096219 -0.007994457 -0.0106428 0.04365481 -0.007931727 0.007183474 0.03862937 -0.007853045 -0.01539139 -0.008421033 -0.007777125 -0.03133105 -0.01100863 -0.007607112 -0.005348438 0.0345571 -0.007362346 0.003846821 0.04836229 -0.007193014 -0.01244018 0.01234565 -0.007034524 0.002407852 0.04789484 -0.007029912 -0.00881928 0.04424678 -0.006992128 -0.006950131 0.03403697 -0.006839328 0.006001126 0.03824512 -0.0065364 0.006302024 0.04915999 -0.006277717 -0.02233794 -0.01028119 -0.005643217 -0.03068143 -0.01403464 -0.005483505 -0.03129372 0.00986014 -0.005180031 -0.01539046 0.008240506 -0.004877816 -0.01369673 0.0426614 -0.004804867 -0.0153915 -0.01095136 -0.00479546 -0.03096983 -0.01286399 -0.004150124 -0.01539124 0.00853759 -0.004145195 -0.02184005 -0.01142179 -0.003763484 -0.0223408 -0.01532683 -0.003672166 -0.01251397 0.03752577 -0.00359645 0.009874018 0.04483243 -0.001444889 -0.02184017 0.009476776 -0.001300058 0.01298254 0.03866038 -0.001019156 -0.01539077 -0.01216052 -0.000814023 -0.03128964 -0.01371849 -0.0006527427 0.008134067 0.04975526 -0.0006343804 -0.01248017 -0.01325845 0.0001195665 -0.03120437 0.01114384 0.0005486741 -0.02169353 -0.01531613 0.0009602827 0.009835428 0.04478769 0.0009887819 -0.01539079 -0.01192938 0.00120388 -0.0223402 0.00933273 0.001625742 -0.03071215 -0.01524658 0.002286031 -0.02233999 -0.01187177 0.002878958 -0.01674465 -0.01534363 0.003085574 -0.03128809 -0.01339214 0.003161937 -0.01428445 0.04247132 0.003236343 -0.0153911 0.008943704 0.003525032 -0.01539146 0.008803391 0.003532274 -0.02183992 -0.011397 0.004352878 -0.01228606 0.0375997 0.004573533 0.01016172 0.04475429 0.004800147 -0.03097538 0.01016499 0.005405841 0.006922809 0.04936169 0.005751823 -0.02233971 -0.01422096 0.006744366 -0.009306642 0.04408876 0.00687933 -0.01539152 -0.009653613 0.00693044 0.003451839 0.04823397 0.00698992 -0.005636959 0.03446426 0.00706851 -0.01539139 -0.009472243 0.007092013 0.006820629 0.03851094 0.007289618 -0.02234 -0.009032419 0.007308322 -0.03097583 -0.01153517 0.007411908 -0.02168081 0.01223189 0.007616939 -0.02184217 0.006420036 0.007857241 -0.03135366 0.008239173 0.008134044 0.0020515 0.04777921 0.008264963 0.003846819 0.04836229 0.008321159 -0.02234039 0.005536386 0.008396034 -0.01539111 0.005155778 0.008414528 -0.0308446 -0.01233387 0.008465291 0.006572649 0.04372775 0.008498561 -0.006911358 0.03404948 0.008521921 -0.02183995 -0.007884763 0.008637692 0.005548411 0.03809812 0.008742947 -0.01034455 0.04375204 0.00874654 -0.009027985 0.04417857 0.008906548 0.009968758 0.03768028 0.009125884 -0.03071043 0.02453777 0.009212232 -0.01244055 0.01197567 0.00983704 -0.01649655 0.03610271 0.01002261 -0.01387687 0.02986298 0.01012471 -0.02986493 0.02429128 0.01022506 -0.02190726 0.02303605 0.01072017 0.002079583 0.04778903 0.01072315 -0.0218411 -0.001192082 0.01077384 -0.02234 -0.00300313 0.01089303 -0.01539139 -0.001637807 0.01091725 -0.01539129 -0.001568521 0.01099004 -0.03115684 -0.007352043 0.01099683 -0.00650877 0.03947368 0.01119872 -0.03100896 0.004282399 0.01132399 0.004594057 0.04292476 0.01136557 -0.03071036 0.00790058 0.01142713 -0.02234 0.008908695 0.01165071 -0.006175095 0.04510474 0.012011 -0.0217351 -0.01391283 0.0122296 -0.02233978 -0.008803064 0.01247087 -0.03127389 -0.00139095 0.01256021 -0.03052699 -0.008000813 0.01261153 -0.001682587 0.04105513 0.01311478 0.001369222 0.03488741 0.01375833 -0.03075021 0.0004500799 0.01403143 -0.02233995 0.000232688 0.02097935 -0.01431574 -0.01161826 0.02274304 -0.02158246 0.008119675 0.02313001 -0.02132429 -0.01078936 0.02338796 -0.01201046 0.008240232 0.0233924 -0.01209817 -0.0106371 0.0253169 -0.02085489 -0.0007515263 0.03068675 0.01611083 0.006042218 0.03068836 0.02621647 -0.01014142 0.0306884 0.01706849 -0.009849015 0.03068844 0.02227064 0.008309708 0.03068877 0.03151331 0.001351345 0.03068915 0.02765161 0.006396297 0.03068922 0.01230703 -0.0009032155 0.03068968 0.0307599 -0.005496689 0.03257452 0.001221825 -0.01084613 0.03257751 0.001002812 0.008148742 0.03281369 0.03465191 -0.003003061 0.03281541 0.02652623 0.01023117 0.032819 0.03222463 0.005819295 0.03281948 0.03207927 -0.001318921 0.03282038 0.01943541 0.007813988 0.03282042 0.01398191 0.008319513 0.03282052 0.02623205 -0.01037066 0.03282059 0.01800533 -0.009978291 0.03282091 0.02684432 0.00720618 0.03282093 0.01351753 0.003261009 0.0328215 0.01332407 -0.005209375 0.03282188 0.01933934 0.01067262 0.03282311 0.02899603 -0.01181505 0.03323773 0.02017521 -0.01360036 0.03326747 0.01384107 -0.01090813 0.0337749 0.01684924 -0.01177562 0.03377757 0.01646629 0.008592861 0.03377837 0.03347419 -0.005528573 0.03377845 0.03446617 0.000203261 0.03378025 0.03189144 0.005885637 0.03378237 0.0204798 0.01059508 0.0337826 0.02490156 -0.01297931 0.03378355 0.02605581 0.009938218 0.03378386 0.02988512 -0.01049206 0.03494539 0.02086111 -0.01334482 0.03494824 0.03280667 -0.006610356 0.03494862 0.03418185 -0.003207604 0.03494898 0.01892247 0.01029171 0.03494971 0.03153587 0.005778238 0.03495081 0.02492209 0.01031748 0.03495145 0.03246636 0.006055528 0.03495297 0.02685081 -0.01208201 0.03495326 0.01642324 -0.01130962 0.03495367 0.01650136 0.008563291 0.03495399 0.02899603 -0.01181504 0.03590739 0.0164895 -0.01123889 0.03590874 0.03332957 -0.00654113 0.03590897 0.01643054 0.00855653 0.03591111 0.01865376 0.0100709 0.03591132 0.02976992 0.007928155 0.03591204 0.02464839 0.01049758 0.03591234 0.01889686 -0.01287072 0.03591376 0.02490156 -0.01297931 0.03591399 0.03411397 -0.002081943 0.03591483 0.03298085 0.003763803 0.03591502 0.02988512 -0.01049206 0.03707703 0.02089352 -0.01334372 0.0370794 0.03280667 -0.006610357 0.03707975 0.0188973 0.01028663 0.03707977 0.03418185 -0.003207604 0.03708086 0.03153587 0.005778239 0.03708197 0.02492208 0.01031748 0.03708261 0.03246636 0.006055528 0.03708413 0.02685081 -0.01208201 0.03708465 0.01643402 -0.01131768 0.03708515 0.02899603 -0.01181504 0.03708537 0.01649915 0.008564959 0.0380369 0.01658413 -0.01141839 0.0380399 0.03332957 -0.00654113 0.03804034 0.01647177 0.008552424 0.03804065 0.01914062 -0.01329654 0.03804227 0.01865376 0.0100709 0.03804247 0.02976992 0.007928155 0.03804319 0.02464839 0.01049758 0.03804492 0.02490156 -0.01297931 0.03804515 0.03411397 -0.002081943 0.03804599 0.03298085 0.003763803 0.03804617 0.02988512 -0.01049206 0.03921036 0.02182046 -0.01317912 0.03921202 0.03153587 0.005778239 0.03921248 0.0338429 -0.00306261 0.03921334 0.01671708 -0.01119715 0.03921416 0.01675181 0.008621607 0.03921672 0.0231282 0.01048021 0.03929573 0.03158322 -0.009220048 0.03930286 0.02696469 -0.0127513 0.03930649 0.02060399 0.01113447 0.03932381 0.03456256 -0.002890127 0.0393426 0.03369105 0.003141167 0.03937509 0.02076218 -0.01374238 0.03938436 0.01375356 -0.01098469 0.0396646 0.01384835 0.008221115 0.03977238 0.031103 0.0070888 0.03986617 0.02663476 0.01 0.03994003 0.002717006 -0.01070393 0.03998906 0.002982046 0.008012647 0.04005809 0.0003146571 -0.0007970866 0.04006635 0.02909042 -0.009999664 0.04008554 0.007261262 -0.009049211 0.04008899 0.02416846 -0.01220098 0.04009169 0.007257936 0.00635086 0.04009969 0.03306397 -0.004019805 0.04010104 0.03255124 0.002332505 0.04010217 0.01406709 -0.00933698 0.04010786 0.0142891 0.006716875 0.04010863 0.005588209 0.002547826 0.04011342 0.02950626 0.007010674 0.0401415 0.005251503 -0.003847591 0.04017281 0.03399339 -0.0007196674 0.04017444 0.03241815 -0.007340019 0.04017774 0.02622396 -0.01262219 0.04018953 0.01931099 0.00946728 0.04019164 0.01648598 -0.0108054 0.04023593 0.0194856 -0.01212722 0.04039755 0.02501431 0.009290015 0.04045402 0.01143819 -0.00139998 0.04103218 0.02375556 -0.01054936 0.04103787 0.01798502 0.007089911 0.04103891 0.01496629 -0.00741037 0.04107607 0.03173388 -0.00277772</float_array>
          <technique_common>
            <accessor count="378" source="#cubeverts-array0-array" stride="3">
              <param type="float" name="X"/>
              <param type="float" name="Y"/>
              <param type="float" name="Z"/>
            </accessor>
          </technique_common>
        </source>
        <source id="cubenormals-array0">
          <float_array count="2262" id="cubenormals-array0-array">-0.9999996 0.0005095179 -0.0006355026 -1 7.328638e-05 -0.000163726 -1 -3.000364e-05 5.340372e-05 -1 -3.249183e-05 7.460025e-05 -1 0.000140576 -0.000148601 -1 4.170422e-06 0.0002804993 -0.372305 0.9225385 -0.1015464 0.4778086 0.7379206 -0.4766257 -0.08014497 0.7125714 -0.6970069 -0.1066169 -0.03176619 -0.9937926 -0.03959766 -0.04760393 -0.9980811 0.261629 -0.6887531 -0.6761431 -0.4667268 -0.7807211 -0.4155004 0.4634649 -0.8858835 0.02026425 -0.4027553 -0.8028566 0.439556 0.280246 -0.585324 0.7608272 -0.2344005 -0.3357674 0.9123139 0.3222808 0.07737743 0.9434765 -0.2251331 0.3264629 0.9180071 0.0696212 0.7921446 0.6063495 0.3945345 0.7830636 0.4807847 -1 -1.615479e-05 -9.881434e-05 -0.9999999 4.162503e-05 0.0005245018 -0.9998227 0.01873629 -0.001820303 -0.9998079 0.01959667 0.0003833709 -0.9999999 0.0001142824 0.0005269435 -0.9997866 0.02065429 -0.000538823 -0.9999976 -0.001017875 -0.001924219 -0.9999979 -0.0008473062 -0.001906283 -0.995851 0.05432542 -0.07300396 -0.9924896 -0.08739236 -0.08559789 -0.9999999 -0.0003714683 -6.030522e-05 -0.9852183 -0.07090519 -0.1559405 -0.9999974 -0.002265116 -2.174478e-05 -0.9930295 -0.005624454 -0.1177321 -0.9972596 -0.03352842 -0.06594864 -0.9999982 -0.001634658 0.0009413235 -0.9999992 0.000283493 -0.001250783 0.03070492 -0.01465631 0.999421 0.02116176 -0.01050125 0.9997209 -0.2554942 -0.007938578 0.966778 0.02603832 -0.03071797 0.9991889 0.02695302 -0.03222907 0.999117 0.005034673 -0.02750902 0.9996089 -0.004718223 -0.04183755 0.9991134 0.01201784 -0.03824574 0.9991961 0.1788096 -0.01353464 0.9837906 0.02254153 0.02332196 0.9994738 0.2591323 -0.02961814 0.9653876 0.2553952 -0.02295855 0.9665642 0.8108735 -0.566452 -0.147025 0.8111673 -0.5651715 -0.1502959 0.8058206 -0.5649703 0.1773745 0.8062128 -0.5609936 0.1879019 0.9995134 -0.02542372 -0.01807718 0.9992649 -0.03090182 -0.02268945 0.9991444 -0.01853105 -0.0369736 0.9981347 0.0001421237 0.06105003 0.9998947 -0.01328512 0.005838111 0.9997495 -0.01800788 0.01328616 0.9297777 0.03494694 0.366459 0.9997371 -0.01902 0.01280321 0.9969339 -0.02807967 0.07303535 0.9910274 0.02708095 0.1308862 0.9604024 -0.01668536 0.2781164 0.7769583 -0.4082564 0.4792313 0.9976397 -0.05962518 0.03405796 0.9596573 -0.1469098 0.2397402 0.8846254 -0.4535885 0.1081441 0.7897684 -0.009742101 0.6133279 0.9981583 -0.0604495 -0.005091439 0.9447057 0.1939329 0.2644262 0.9549252 0.2590925 0.1448757 0.9711193 0.2011328 0.1283468 0.9467519 0.1894716 0.26031 0.788524 -0.207819 0.5788273 0.8853718 0.005278831 0.4648536 0.8506768 0.4773007 0.220302 0.2876391 0.9480205 0.1360916 0.7792202 0.6097712 -0.1448967 0.05185465 0.9034821 -0.4254776 0.7108117 0.4566213 -0.5350175 0.5342152 0.5139764 -0.67115 0.2713771 0.1549448 -0.9499193 0.8726865 -0.02827097 -0.4874617 0.7698057 -0.2328223 -0.5943005 0.8529649 -0.2209758 -0.4728855 -0.9274704 -0.1884322 0.3229427 -0.9977017 -0.0185907 0.06515824 -0.474132 0.2050713 0.8562386 -0.8930878 0.2192085 0.3928636 -0.846665 0.2778936 0.4537989 -0.6294304 0.6166613 0.4728069 -0.9826406 -0.06905152 -0.1721899 -0.9840254 -0.06494878 -0.1657574 -0.9958054 0.08854417 0.02305422 -0.9888158 0.1471421 0.02434197 -0.9316863 0.04671348 -0.3602477 -0.9825044 0.1701493 -0.07572557 -0.9993826 0.02035249 -0.02863896 0.2113256 -0.3537385 -0.911159 -0.5476602 -0.153818 -0.8224404 0.6331313 0.2861277 -0.7192189 0.2909347 0.4271867 -0.8560774 -0.1675534 0.8807758 -0.4428993 -0.6724634 0.6918327 -0.2629837 0.3615561 0.9153231 0.1773718 0.6064858 0.7693238 0.200788 -0.07322022 0.7898308 0.6089385 0.6946653 0.3226434 0.6429163 0.5423656 0.4103077 0.7331352 -0.07695614 -0.0707757 0.9945193 0.08757445 -0.569066 0.8176152 0.5909789 -0.2259593 0.7743941 0.9999992 -0.0007916777 0.000920979 0.9999903 0.003975038 -0.001877202 -0.02484505 -0.1403816 0.9897857 -0.9999971 0.00125569 0.002073281 -0.9999985 0.00168913 0.0006187963 -0.9999661 -0.0005465631 0.008207034 -0.9999985 0.0006737213 -0.001598535 0.5315145 -0.4760213 -0.7006397 -0.08016631 -0.4124152 -0.9074619 -0.3512955 -0.01684516 -0.9361131 0.3760221 0.1915625 -0.9065931 -0.05768776 0.44583 -0.8932568 0.6028811 0.5400229 -0.5872902 -0.5967723 0.7168559 -0.360528 -0.3838908 0.8561241 -0.3459471 0.1255656 0.9739603 0.1887715 0.573974 0.7855449 0.2312427 -0.07322022 0.7898308 0.6089385 0.6946653 0.3226434 0.6429163 -0.00545479 0.5658646 0.8244801 0.1533209 -0.005115277 0.9881632 -0.1669683 -0.06997578 0.9834759 0.02690472 -0.5627795 0.8261691 -0.02839732 -0.5829992 0.8119764 0.9999903 0.003975038 -0.001877202 -0.9999971 0.001255688 0.002073279 -0.9999985 0.001689129 0.0006187962 -0.9999578 -0.0006651743 0.009160113 -0.9999985 0.0006737211 -0.001598535 0.5876868 -0.3141509 -0.7456094 0.9247024 -0.05714662 -0.376377 0.9999999 0.0004869092 -9.691211e-05 0.2518898 -0.3071405 -0.9177235 0.1909521 -0.05922534 -0.9798111 0.07678742 -0.0423883 -0.996146 -0.2441828 0.008644165 -0.9696907 -0.09493638 -0.06421091 -0.9934103 0.02564405 -0.031302 -0.999181 0.2874848 -0.009889287 -0.9577341 -0.06942845 -0.05900983 -0.9958401 0.02612696 -0.03368951 -0.9990908 -0.01930016 0.01704717 -0.9996684 -0.8168643 0.5768227 -0.002871815 -0.8232632 0.5676205 0.006674364 -1.315067e-05 0.9999988 -0.001565168 -0.01642474 0.9998534 0.00483903 -0.03154942 0.9994914 -0.004650931 0.09817223 0.3113793 -0.9452011 0.107955 0.5070624 -0.8551219 -0.06315142 0.3959166 -0.9161124 -0.09921234 0.4585756 -0.8830999 0.02826807 0.9995842 0.00567987 -0.001634745 0.9996653 -0.02582154 0.5469628 0.837153 -0.002570541 -0.01364529 -0.9998356 -0.01194466 -0.01468099 -0.9983643 -0.05525654 -0.0220492 -0.9997532 0.002732724 0.0008535935 -0.9993308 -0.03656898 0.0001499467 -0.999154 -0.0411252 -0.02210528 -0.9997492 0.003581665 -0.02773802 -0.9995371 0.01250112 -0.02663306 -0.9995075 0.01659914 0.008694354 -0.9998859 -0.01235976 -0.01278899 -0.9997248 0.01966578 0.0359589 -0.9993474 0.003430491 -0.002358106 -0.9978629 0.06530024 0.03269791 -0.9993811 -0.01297601 0.02903908 -0.999531 -0.009722463 0.00925127 -0.9995629 0.02807816 0.01642925 -0.9998435 0.006563348 0.01398732 -0.9995032 0.02824358 0.2457172 -0.9693068 -0.008205981 -0.0590378 0.02225494 -0.9980077 -0.1006021 -0.07117072 -0.9923779 -0.2861189 0.03093626 -0.9576945 -0.2809098 0.01495023 -0.9596177 -0.06445269 0.02075797 -0.9977049 0.8017113 0.5974818 0.01656947 0.8218691 0.5695392 -0.01250201 0.9156767 0.4015305 -0.01759436 -0.270687 -0.02264655 0.962401 -0.2462674 0.01140824 0.9691347 -0.03624227 -0.0695551 0.9969195 -0.3576001 -0.9326222 0.04835262 -0.7911261 -0.563938 -0.2368406 -0.8134562 -0.5600351 -0.1570025 -0.8121515 -0.581627 -0.04604231 -0.8038236 -0.5460989 0.2358892 -0.8033502 -0.5634891 0.1926353 -0.9996725 -0.01538185 0.02045549 -0.9993462 -0.03399923 0.01230363 -0.9925673 0.02498907 0.1191033 -0.9996071 -0.02798833 0.001541673 -0.9686535 -0.01324435 0.2480624 -0.9591007 -0.1426558 0.2444898 -0.9995306 -0.03051515 -0.002726086 -0.9975564 0.01337824 0.06857285 -0.9999318 -0.003625623 -0.01110903 -0.9974915 0.0154087 0.06908894 -0.9999563 -0.008986633 0.002578223 -0.9986932 0.001215069 0.05109158 -0.999101 -0.02956983 -0.03037767 -0.9289846 0.3478521 0.126438 -0.9625915 0.2678323 0.04102719 -0.8847249 0.4660813 -0.00548445 -0.9986689 0.01467359 0.04944768 -0.9961074 0.08734994 -0.01184055 -0.9542176 0.2304444 -0.1906939 -0.9988327 0.003452313 -0.04818069 0.02646756 -0.02647216 -0.999299 0.08129381 -0.0567931 -0.9950708 -0.04434803 -0.02922749 -0.9985885 -0.1314883 -0.01570038 -0.9911934 -0.00576986 -0.03774239 -0.9992708 0.005028287 -0.02415156 -0.9996957 -0.02750363 -0.03103524 -0.9991398 0.1664257 0.0001627178 -0.986054 -0.0277243 -0.03190397 -0.9991063 0.03157946 0.03366581 -0.9989341 0.9938416 -0.09539865 -0.05637337 0.9925088 -0.09098106 -0.08153973 0.9985096 0.04314028 -0.03343076 0.9999425 0.009501624 0.0049666 0.9999999 0.0002212118 -0.0003585716 0.9999999 -0.0002765103 0.0003941644 0.9999998 0.0005762193 9.482376e-05 0.9999905 0.004309421 -0.0006693426 0.9999999 -0.0003789754 0.000225655 0.9999998 0.0005498929 1.115978e-05 0.9985583 0.04161229 0.03390688 0.9943169 -0.03698768 0.09982919 0.9999999 -6.560971e-05 -0.0003958567 0.9929845 -0.01370113 0.117448 0.999999 -0.0005181204 -0.001278646 0.9999999 -0.000351769 -0.0002537156 0.9999988 -0.0009902709 -0.001240656 -0.01744946 -0.006059006 0.9998294 -0.02480911 -0.009156623 0.9996503 -0.01843767 -0.008022332 0.9997979 -0.04904614 -0.01971874 0.9986019 -0.2492253 0.01169489 0.9683749 0.06206543 -0.05735463 0.9964228 -0.02134177 -0.03203401 0.9992589 0.03535274 -0.09155913 0.9951719 -0.07498265 -0.0437474 0.9962247 0.04609357 -0.02522053 0.9986187 0.1621324 -0.01671747 0.9866274 -0.8610377 -0.1606007 -0.4825159 -0.8192356 -0.2388107 -0.5213661 -0.6728489 -0.05705424 -0.7375765 -0.7850015 0.08206047 -0.6140348 -0.4348882 0.6846207 -0.5849502 -0.5760109 0.8150694 -0.06223617 -0.1750941 0.8280389 0.532629 -0.655367 0.3934398 0.6447473 -0.738632 -0.06913422 0.6705544 -0.8018128 -0.03080544 0.5967809 -0.8181537 -0.1942893 0.5411803 0.9918061 -0.05390242 -0.1158237 0.9961743 -0.01979276 -0.08511728 0.9427784 -0.1997532 0.2669598 0.9988511 0.003459971 0.04779747 0.9273575 0.3722278 0.03813963 0.9830804 0.05603818 0.174392 0.8058629 0.4870931 0.3366385 0.9943394 0.1042949 0.02028845 -0.9477858 0.2550977 0.1913824 0.03275875 -0.1017295 -0.9942726 0.9999986 -0.0006869213 -0.001549609 0.9999982 -0.0003149562 -0.001937892 0.9442891 0.2533799 0.2100396 -0.9999995 -0.0008961271 0.0006379304 -0.9496159 0.2660165 0.1657251 0.0739685 -0.4246044 0.9023523 0.6045137 -0.2161267 0.7667153 -0.3502313 0.1815044 0.9189093 0.04861866 0.3143875 0.9480489 -0.4402903 0.691102 0.5731689 0.4722155 0.7488362 0.4650343 -0.5780078 0.8072366 -0.1194829 0.05534765 0.9981663 -0.02450792 -0.2169999 0.801631 -0.5570447 -0.01234372 0.8413947 -0.54028 0.1365705 0.4657475 -0.8743156 -0.5462551 0.2255559 -0.8066784 0.05287274 0.07963816 -0.9954206 -0.03320214 -0.4716439 -0.8811638 -0.4658898 -0.2999361 -0.8324572 0.9999986 -0.0006575378 -0.001580282 0.9999982 -0.0003149562 -0.001937892 0.9442891 0.25338 0.2100396 0.07657113 -0.4246056 0.9021347 0.6038832 -0.2158453 0.7672913 -0.3502302 0.1815044 0.9189097 0.0486186 0.3143874 0.948049 -0.4402893 0.6911024 0.5731691 -0.7479361 0.4730008 0.4656843 0.3314025 0.9110492 0.245279 -0.5099481 0.8599331 -0.02163294 0.3084044 0.884692 -0.3495808 -0.3289386 0.7946298 -0.5102575 0.3682173 0.6108655 -0.7008989 -0.4920905 0.234362 -0.838404 -0.1827906 0.1940655 -0.9638082 0.1341789 -0.4583687 -0.8785751 -0.4061992 -0.3097093 -0.859699 -0.9030366 -0.1170228 0.4133166 -0.8955827 -0.2068601 -0.3938787 -0.6585333 -0.32751 0.6775479 0.4385604 0.1759409 0.8813113 -0.2043428 0.3080986 0.9291498 -0.3229052 0.6744738 0.6639408 0.3671146 0.7436866 0.5587101 -0.6616665 0.7239069 0.1953362 0.306071 0.951871 -0.0161917 -0.6184839 0.7308425 -0.2886988 0.1011405 0.8314629 -0.5462965 -0.623708 0.5134515 -0.5893691 0.2827488 0.2768778 -0.9183637 -0.3591641 0.1842363 -0.9149088 -0.4409321 -0.3239749 -0.83703 -0.09315877 -0.6985906 0.7094312 0.6080521 -0.3390562 0.7178534 -0.2709911 -0.05284977 0.96113 0.4113717 0.1773958 0.8940381 -0.05907613 0.3142017 0.9475164 0.344751 0.5858795 0.7334111 -0.1765722 0.9287903 0.3258388 0.5158685 0.8564203 -0.02059167 0.005190218 0.9892839 -0.1459123 0.2404777 0.8167683 -0.5244618 0.001425058 0.8211055 -0.5707747 -0.1621473 0.4636823 -0.8710378 0.4810247 0.2813044 -0.8303511 -0.6165932 0.06312952 -0.7847468 -0.2174551 -0.4607288 -0.8604895 0.0436829 -0.5151474 -0.8559877 0.1094682 -0.5500551 0.8279227 0.4400348 -0.3830033 0.8122055 -0.3043281 -0.1154499 0.9455452 0.4483031 0.1740193 0.8767791 0.06245628 0.2895334 0.9551281 0.1778485 0.6025132 0.7780411 -0.02163668 0.937273 0.3479244 0.2679759 0.9631402 -0.0234482 -0.3329956 0.9354404 -0.1185967 0.3444077 0.7899818 -0.5072594 -0.1011841 0.7896921 -0.6051018 -0.2786486 0.4947684 -0.8231397 0.5230546 0.2734244 -0.8072503 -0.6177747 0.06179582 -0.7839233 -0.2020838 -0.4570136 -0.866199 0.1044956 -0.5128139 -0.8521165 -0.2032369 -0.5424809 0.8151129 -0.591976 -0.2693968 0.7595984 0.04414602 -0.1211176 0.991656 -0.0756318 0.4021699 0.9124358 -0.5972083 0.2324678 0.7676594 0.3028114 0.7627952 0.5713568 0.04473617 0.821945 0.5678074 -0.5022355 0.8578975 0.1084955 0.4427324 0.8895119 -0.1129449 0.1559226 0.7842252 -0.6005656 -0.325151 0.8092274 -0.4893138 0.3561756 0.3341917 -0.8726137 -0.5714188 0.4225819 -0.703495 0.4317585 0.0693697 -0.8993178 -0.1171549 -0.4633356 -0.8784047 -0.5015413 -0.289672 -0.8151971 0.4898113 0.286748 0.8233228 0.5732685 0.7013861 -0.4235808 0.3570075 0.3340764 -0.872318 -0.494326 -0.748535 -0.4419696 0.4639771 -0.5901396 -0.6606516 -0.3482108 0.07283305 -0.9345826 0.05899691 0.2003457 -0.9779473 0.06086047 0.7605886 -0.6463752 -0.3398528 0.8005049 -0.4936517 0.4304064 0.9021926 0.02826607 -0.4434165 0.8220791 0.3571662 0.3436623 0.5070611 0.7904335 -0.1475832 0.3725384 0.9162065 0.14331 -0.3419131 0.9287398 0.1779711 -0.331027 0.9266863 -0.3087974 -0.837482 0.4508525 0.5106744 -0.8410524 0.1784449 1 0.0001339811 0.0001541381 1 3.366738e-05 -0.0001370959 1 3.129193e-05 -1.212228e-05 1 3.671863e-05 -1.656453e-05 0.9999998 0.0005915443 0.0003124467 -0.9998733 -0.003574084 0.01550971 -0.9988183 -0.01849994 0.04494167 -0.9980222 -0.06276036 0.003563543 -0.9968513 -0.07037758 -0.03652931 -0.9927714 -0.007538301 -0.1197833 -0.9682419 -0.1639047 -0.1887932 -0.9760979 -0.1363849 -0.1692097 -0.9039557 -0.1368339 -0.4051427 -0.8966016 0.1065953 -0.4298174 -0.9595631 0.1471053 -0.2399974 -0.9719105 0.2228629 -0.07564449 -0.8137984 0.5734158 0.09448007 -0.93251 0.2160806 0.2893687 -0.9107816 0.2613465 0.3196483 -0.8617082 0.0282889 0.5066149 -0.9620247 -0.07929545 0.2611909 -0.8994822 -0.2143638 0.3807625 -0.7419127 -0.661074 0.1120126 -0.9999924 0.001165679 0.003705848 -0.9990359 -0.005823673 -0.04351392 -0.9991629 -0.03334723 0.02369785 -0.9913836 0.1072733 -0.07517339 -0.05132649 -0.9669046 -0.2499217 0.2713627 -0.0305041 -0.9619936 0.1210594 -0.06250683 -0.9906753 0.1919814 0.07066376 -0.9788513 0.3729443 0.004706515 -0.9278417 -0.9354301 0.04423651 -0.3507329 -0.9258653 0.005812756 -0.3778091 -0.9488969 0.04677214 0.3121011 -0.8897093 -0.1047451 0.4443489 -0.5738736 0.07745387 0.815273 -0.3596265 -0.06499334 0.9308301 -0.003220407 0.08100895 0.9967082 0.1662097 -0.05482262 0.9845653 0.7478198 0.080817 0.6589645 0.7175477 0.022619 0.6961419 0.9925005 -0.1098398 0.05364718 0.9791632 0.1201627 -0.1637082 0.6965075 -0.08633041 -0.7123372 0.5432098 0.1065837 -0.8328043 0.05449347 -0.1214785 -0.9910971 -0.3158878 0.1518807 -0.9365613 -0.5895835 -0.08618412 -0.8030962 4.836901e-05 -0.9999999 -0.0004457758 9.875063e-06 -1 -9.919774e-05 3.484286e-05 -1 1.055374e-05 6.412259e-06 -1 0.0001468548 2.324011e-05 -1 -9.628227e-05 -2.258061e-05 -1 1.191644e-06 2.761578e-05 -1 3.786837e-05 0.2546262 -0.01177854 -0.9669679 -0.57876 -0.3381362 -0.7420922 0.008100048 -0.592047 -0.8058627 0.1470902 0.05427619 -0.9876328 -0.370893 0.1725323 -0.912508 0.6335585 0.3453754 -0.692329 -0.3686161 0.7498454 -0.5494124 0.202592 0.738297 -0.6433305 -0.4310772 0.8365969 -0.3380503 0.2621211 0.9503896 -0.1674879 -0.1417978 0.9733372 0.1803004 -0.07139458 0.9792198 0.1898192 0.7178696 0.5510285 0.425477 -0.4358609 0.4035377 0.8044766 -0.0230801 0.4917346 0.8704392 -0.1855303 -0.004962277 0.982626 0.2013834 -0.0695743 0.9770384 0.0394005 -0.5707884 0.8201513 -0.006061184 -0.5831891 0.8123138 -0.3733461 -0.3872589 -0.8429966 0.09982435 -0.5584295 -0.8235239 0.4128422 -0.0165658 -0.9106519 -0.3729122 0.171861 -0.9118115 0.6335585 0.3453754 -0.692329 -0.3686164 0.7498454 -0.5494123 0.202592 0.738297 -0.6433305 -0.4310773 0.8365969 -0.3380504 0.2621211 0.9503896 -0.1674879 -0.1417978 0.9733372 0.1803004 -0.07139458 0.9792198 0.1898192 0.7178696 0.5510285 0.425477 -0.4358609 0.4035377 0.8044766 -0.02307999 0.4917346 0.8704392 -0.1853122 -0.004163225 0.9826709 0.2046594 -0.06952658 0.9763609 0.03242179 -0.5626909 0.8260313 -0.03729526 -0.5806719 0.813283 -0.3953435 0.1643266 -0.9037148 0.6336704 0.3453345 -0.6922469 -0.3614697 0.7844886 -0.5039023 0.05679612 0.8090656 -0.5849676 0.6033039 0.7858286 -0.1360073 -0.5719798 0.7907925 0.2179135 0.2760889 0.8754888 0.3966035 0.155679 0.6046661 0.7811164 0.46536 0.5050517 0.7268857 0.3364941 0.1101005 0.935227 0.007774718 0.06131436 0.9980882 0.5163538 -0.3827853 0.7660641 0.6164127 -0.3167971 0.7208849 0.2045164 -0.4077432 -0.8898981 -0.6349888 -0.1136161 -0.7641209 0.3773766 0.1905843 -0.9062365 -0.05768757 0.44583 -0.8932568 0.6028799 0.5400234 -0.5872909 -0.07928833 0.8077511 -0.5841674 0.1795548 0.9120739 -0.368621 -0.657076 0.7466653 0.1036443 0.3027081 0.9142802 0.2691832 0.2415171 0.5536074 0.7969869 0.2712025 0.544697 0.7935708 0.3827679 0.1080036 0.9175096 -0.3125043 -0.003983715 0.949908 -0.491967 -0.5064825 0.708127 0.03578749 -0.4461533 0.8942408 0.9989442 -0.004374892 -0.04573195 0.9988522 -0.0400792 -0.02623089 0.9985315 -0.053587 0.00795292 0.9987934 -0.04317519 0.02340437 0.9990113 -0.0045984 0.04422011 0.8787567 0.3952387 -0.2675311 0.959096 0.1948001 -0.2053967 0.8712277 0.2037453 -0.4465984 0.870308 0.01955666 -0.4921193 0.9646088 -0.08803116 -0.2485566 0.942399 -0.1464354 -0.3007341 0.9126758 -0.2362161 -0.3335041 0.8579557 -0.4751114 -0.1954001 0.958327 -0.2542862 0.1301839 0.8542103 -0.2603702 0.4500356 0.9373749 -0.0233868 0.3475361 0.9840822 0.1258939 0.1254317 0.9621539 0.2295452 0.1468638 0.7822939 0.6209036 0.04995059 0.991451 0.04455691 0.1226365 0.9978504 -0.06218935 -0.02066647 0.9999911 -0.003933352 -0.001609206 0.9939494 0.06220891 0.09052531 -0.0004278889 -0.3090909 0.9510325 0.0004035312 -0.3089606 0.9510747 0.0001258755 -0.3084556 0.9512387 -0.000115751 -0.309168 0.9510075 -6.512325e-05 -0.3087182 0.9511536 -0.0001530867 -0.3090287 0.9510527 9.873682e-05 -0.309135 0.9510182 -0.0001834899 -0.3089072 0.9510922 -2.307759e-05 -0.3090116 0.9510583 0.0006773986 -0.3094938 0.9509013 -0.0001754446 -0.3089479 0.951079 -2.374107e-05 -0.3090286 0.9510527 -8.645231e-05 -0.308975 0.9510701 -0.0006313175 -0.3081985 0.951322 0.0003624476 -0.3091137 0.951025 -1.17296e-05 -0.3089836 0.9510673 -9.616875e-06 -0.3090135 0.9510577 -5.924457e-06 -0.3088718 0.9511037 0.000317282 -0.3090497 0.9510459 4.687894e-06 -0.3090001 0.9510619 -0.0002509393 -0.3092694 0.9509744 4.350027e-06 -0.3090007 0.9510618 2.247245e-06 -0.3090015 0.9510615 -0.0002555984 -0.3088783 0.9511015 -0.001072569 -0.3099049 0.9507669 -0.9993831 0.02304356 -0.02650156 -0.9986163 0.03589764 -0.03843096 -0.7675884 0.5973471 0.2323458 -0.6889622 0.7145057 0.1217072 -0.30512 0.8257844 0.4743225 0.01121483 0.9448699 0.3272538 0.2050831 0.9036093 0.3760735 0.4129213 0.8950243 0.168605 0.6870809 0.6457923 0.3329746 0.8936569 0.4487508 0.0002898253 0.966023 0.02525479 0.2572192 0.9529927 -0.2881781 -0.09358484 0.8280939 -0.557021 -0.06315105 0.5943765 -0.7845712 -0.1765349 0.6742393 -0.6899504 -0.2633816 -0.07642359 -0.9675674 -0.2407756 0.02977301 -0.9273081 -0.3731129 -0.6436355 -0.6988291 -0.3120437 -0.7152225 -0.685326 -0.1370585 -0.7513679 -0.6552116 -0.07838344 -0.009263166 -0.3196425 0.947493 -0.2462693 -0.3393921 0.9078349 -0.09783798 -0.3053428 0.947203 -0.4844791 -0.0754024 0.8715472 0.01203566 -0.3210181 0.9469966 -0.05952634 -0.2531053 0.9656057 0.04251762 -0.3239265 0.9451264 0.009768413 -0.005800319 0.9999355 0.0309667 -0.2436759 0.9693622 0.08357433 -0.2686912 0.9595938 0.3146433 0.07043751 0.9465929 0.0007701212 -0.3329942 0.9429286 0.001043947 -0.3337885 0.9426474 0.9995943 -0.003468599 0.02827111 0.5947078 -0.5250806 0.60878 0.9992744 -0.006686213 0.03749824 0.9971438 -0.0006613319 0.07552335 0.9961995 -0.01759937 0.08530371 0.656176 -0.7494202 0.08833086 -0.2069614 -0.9712447 -0.1176893 -0.1128521 -0.9806657 -0.1598727 -0.3892916 -0.5565453 -0.7339683 -0.4619147 -0.8761806 -0.1376304 -0.08088645 -0.8827842 -0.4627627 -0.1130529 -0.9806662 -0.1597274 -0.245722 -0.9688693 -0.03021681 0.02679456 -0.9484907 -0.31567 0.2700346 -0.8386415 -0.4730346 0.03173348 -0.9923761 -0.119091 -0.4346794 -0.8918452 0.1251632 -0.193965 -0.9760845 0.09816634 0.05313633 -0.994541 -0.08980348 -0.1495951 -0.9751532 0.1633938 0.2889368 -0.9344916 -0.2079442 0.3340161 -0.9371001 -0.1013746 0.4849253 -0.8697324 -0.09172256 0.003127516 -0.9984349 0.05583898 -0.09938154 -0.9947365 0.02495181 0.2480381 -0.9635116 0.100611 0.20513 -0.9761488 0.07109947 0.1866284 -0.9797702 0.07225153 0.2027627 -0.8486394 0.4885678 0.04959273 -0.9987634 0.003485284 0.04229107 -0.9990891 0.005688851 -0.01169042 -0.9989321 0.04469939 -0.9951472 -0.02762901 0.09443892 -0.9542462 -0.01490669 0.2986506 -0.9747716 -0.1522147 0.1632514 -0.9722201 0.0106187 -0.2338276 -0.9506375 -0.06195848 -0.3040549 -0.6148368 0.01090707 -0.788579 -0.6198525 0.0181553 -0.7845083 -0.1638419 -0.1148683 -0.9797761 0.115194 0.06465694 -0.9912366 0.3916705 -0.08074381 -0.9165558 0.6412619 0.0306462 -0.7667098 0.7234281 -0.03833425 -0.6893347 0.980487 0.02043404 -0.1955193 0.9893335 -0.03577649 -0.1412067 0.9518172 -0.02300376 0.305802 0.9569502 -0.04163296 0.2872506 -0.0001000887 1 -2.432806e-05 -2.388321e-05 1 -9.451487e-05 -0.01285784 0.9994144 -0.03170768 -0.000542023 0.9999205 -0.01258661 0.003286665 0.9999509 -0.009354887 0.009715261 0.9999158 -0.008598212 -0.6375265 0.06107976 -0.7680035 -0.8047277 -0.0236543 -0.5931726 -0.849501 -0.09271672 -0.5193761 -0.9928833 0.08553383 -0.0828658 -0.9614779 -0.1380558 0.2376989 -0.7829574 0.1565501 0.6020546 -0.3212923 -0.1481379 0.9353215 -0.06421093 0.09710866 0.9932003 0.4687366 -0.08963309 0.8787786 0.5989866 0.03735556 0.7998872 3.299144e-05 1 -2.069909e-06 -2.919207e-05 1 -7.990655e-05 -0.0003447569 1 5.773972e-06 -0.0005525742 0.9999995 -0.0008412417 -4.712012e-05 1 3.2701e-05 0.0001480212 0.9999999 -0.0004921363 -4.152405e-05 1 2.706727e-05 -0.0001097066 1 -4.08761e-05 -3.715908e-05 1 6.615453e-05 -4.522936e-05 1 2.613724e-05 -4.722582e-05 1 6.913814e-05 0.9587479 -0.07055109 0.2753636 0.9385716 0.008781338 0.3449728 0.8658186 -0.004119203 -0.5003412 0.8963974 0.07060612 -0.4375918 0.4931554 -0.03931574 -0.8690524 0.3135202 0.109925 -0.9431975 -0.1811691 -0.126691 -0.9752575 -0.3041396 -0.02738201 -0.9522339 -0.0002040713 1 -4.745942e-05 -0.0003393719 0.9999998 -0.0004544313 8.845591e-05 0.9999999 0.0003274206 -0.0001445247 1 -9.495308e-05 -5.985686e-05 1 -9.394054e-05 0.0001138851 1 2.620372e-05 5.860704e-06 1 0.0002129574 -5.687179e-06 1 3.019751e-06 -0.0006920198 0.6476986 -0.7618963 -0.001547795 0.3132794 -0.9496597 0.001964619 0.6439305 -0.7650815 2.745411e-05 0.311096 -0.9503784 0.9818775 -0.1833912 -0.04779423 0.9834275 -0.1810603 -0.009347605 -0.923187 0.3540827 0.1495036 -0.9314026 0.3441321 0.1185849 -0.4509654 0.853239 0.2619419 -0.4509802 0.8532387 0.2619171 -0.02735847 0.8968395 0.4415094 0.2933837 0.9435145 0.1539688 0.6478087 0.6609666 0.3787704 0.9013688 0.4321828 0.02742731 0.97576 0.1537792 0.1557064 -0.9983516 -0.03686153 0.04399291 -0.9993953 -0.0107232 0.03308109 -0.9829557 -0.1755604 -0.05455731 -0.9823487 -0.1806693 -0.04847161 -0.01580992 -0.6464061 0.7628298 0.003267567 -0.6312187 0.7755981 -0.0001430358 0.3088247 -0.9511189 0.0001258533 0.3091266 -0.9510208 2.482781e-05 0.3088435 -0.9511129 0.1236897 -0.9180487 0.3766793 -0.08368969 -0.9963089 -0.01909297 -0.02559242 -0.9996269 0.009552905 0.03896735 -0.9988111 -0.0292915 0.2099814 -0.9733166 0.09253528 0.1477313 -0.973927 -0.1721677 -0.1648196 -0.8842196 -0.4370242 0.001379746 -0.9999302 -0.01173573 0.003597457 -0.9999922 -0.001629778 0.002585222 -0.9983018 0.05819672 -0.01859836 -0.9998197 0.003832865 0.002082227 -0.9999967 0.001560245 -0.005839683 -0.9999216 -0.01108133 0.479167 0.831176 0.2820378 0.6632084 0.6935368 0.2813563 0.1445183 -0.9257969 -0.349306 -0.6609998 -0.7375969 -0.1379496 -0.9997129 -0.004870767 0.02345704 0.2868371 0.8839461 0.3692746 0.9213634 0.3794554 0.08428065 0.6619999 -0.7228778 -0.1979992 0.1139559 -0.9331192 -0.3410315 -0.9384811 -0.3390533 -0.06554488 -0.8915301 0.4461292 0.07837524 5.958267e-05 -0.3088419 0.9511134 -0.9769524 -0.1928219 -0.09156313 -0.7508428 -0.6370233 -0.1744604 -0.3665212 0.8743215 0.3181575 0.2848248 0.9286346 0.2377237 0.9563665 -0.2905287 -0.03092283 0.5225126 -0.7967114 -0.3036968 4.272794e-05 -0.3090414 0.9510486 0.6532955 0.7005791 0.2870435 0.7739898 0.594215 0.2187426 0.2971152 -0.903739 -0.3081858 -0.9965228 0.08010879 -0.02290695 -0.6517073 -0.7440851 -0.1470201</float_array>
          <technique_common>
            <accessor count="754" source="#cubenormals-array0-array" stride="3">
              <param type="float" name="X"/>
              <param type="float" name="Y"/>
              <param type="float" name="Z"/>
            </accessor>
          </technique_common>
        </source>
        <vertices id="cubeverts-array0-vertices">
          <input semantic="POSITION" source="#cubeverts-array0"/>
        </vertices>
        <triangles count="754" material="ref_gimbal_joint">
          <input offset="0" semantic="VERTEX" source="#cubeverts-array0-vertices"/>
          <input offset="1" semantic="NORMAL" source="#cubenormals-array0"/>
          <p>258 0 261 0 264 0 261 1 263 1 264 1 263 2 262 2 264 2 264 3 262 3 260 3 262 4 265 4 260 4 260 5 265 5 259 5 271 6 265 6 262 6 274 7 265 7 271 7 274 8 259 8 265 8 274 9 260 9 259 9 275 10 260 10 274 10 278 11 260 11 275 11 278 12 264 12 260 12 277 13 264 13 278 13 277 14 258 14 264 14 272 15 258 15 277 15 272 16 261 16 258 16 276 17 261 17 272 17 276 18 263 18 261 18 276 19 262 19 263 19 271 20 262 20 276 20 273 21 272 21 277 21 279 22 272 22 273 22 273 23 277 23 267 23 267 24 277 24 266 24 279 25 276 25 272 25 277 26 278 26 266 26 269 27 276 27 279 27 270 28 276 28 269 28 278 29 282 29 266 29 275 30 282 30 278 30 270 31 271 31 276 31 275 32 281 32 282 32 270 33 268 33 271 33 274 34 281 34 275 34 274 35 280 35 281 35 271 36 268 36 274 36 268 37 280 37 274 37 253 38 267 38 255 38 253 39 353 39 267 39 267 40 284 40 273 40 267 41 301 41 284 41 353 42 305 42 267 42 267 43 305 43 301 43 353 44 324 44 305 44 353 45 327 45 324 45 353 46 349 46 327 46 211 47 227 47 161 47 253 48 255 48 211 48 211 49 255 49 227 49 354 50 254 50 352 50 354 51 257 51 254 51 353 52 253 52 354 52 354 53 253 53 257 53 352 54 356 54 354 54 356 55 365 55 354 55 352 56 370 56 356 56 370 57 361 57 356 57 365 58 363 58 354 58 354 59 363 59 353 59 368 60 357 60 371 60 363 61 358 61 353 61 368 62 355 62 357 62 358 63 349 63 353 63 362 64 349 64 358 64 368 65 367 65 355 65 355 66 367 66 359 66 362 67 369 67 349 67 367 68 366 68 359 68 372 69 351 69 369 69 359 70 366 70 360 70 364 71 351 71 372 71 366 72 350 72 360 72 360 73 350 73 364 73 364 74 350 74 351 74 369 75 344 75 349 75 351 76 344 76 369 76 366 77 346 77 350 77 366 78 345 78 346 78 367 79 345 79 366 79 367 80 342 80 345 80 368 81 342 81 367 81 368 82 343 82 342 82 368 83 347 83 343 83 371 84 347 84 368 84 371 85 348 85 347 85 370 86 348 86 371 86 344 87 340 87 349 87 344 88 341 88 340 88 351 89 341 89 344 89 351 90 337 90 341 90 351 91 350 91 337 91 350 92 346 92 337 92 339 93 347 93 348 93 339 94 336 94 347 94 346 95 338 95 337 95 346 96 345 96 338 96 336 97 343 97 347 97 345 98 342 98 338 98 342 99 343 99 336 99 325 100 336 100 339 100 332 101 336 101 325 101 332 102 342 102 336 102 335 103 342 103 332 103 333 104 338 104 335 104 335 105 338 105 342 105 334 106 338 106 333 106 334 107 337 107 338 107 330 108 337 108 334 108 331 109 337 109 330 109 331 110 341 110 337 110 329 111 341 111 331 111 327 112 340 112 329 112 329 113 340 113 341 113 328 114 332 114 325 114 335 115 326 115 333 115 349 116 340 116 327 116 320 117 318 117 319 117 320 118 317 118 318 118 321 119 323 119 314 119 315 120 323 120 321 120 309 121 314 121 303 121 303 122 314 122 322 122 310 123 314 123 309 123 310 124 321 124 314 124 313 125 321 125 310 125 313 126 315 126 321 126 311 127 315 127 313 127 311 128 317 128 315 128 312 129 317 129 311 129 312 130 318 130 317 130 307 131 318 131 312 131 308 132 318 132 307 132 308 133 319 133 318 133 308 134 316 134 319 134 306 135 316 135 308 135 305 136 324 136 306 136 306 137 324 137 316 137 313 138 304 138 311 138 298 139 296 139 297 139 298 140 294 140 296 140 299 141 302 141 292 141 293 142 302 142 299 142 281 143 283 143 282 143 281 144 289 144 283 144 285 145 286 145 287 145 300 146 282 146 283 146 339 147 348 147 325 147 303 148 266 148 300 148 300 149 266 149 282 149 325 150 352 150 322 150 303 151 352 151 266 151 348 152 352 152 325 152 322 153 352 153 303 153 266 154 352 154 256 154 352 155 254 155 256 155 267 156 256 156 255 156 267 157 266 157 256 157 227 158 184 158 161 158 227 159 256 159 184 159 255 160 256 160 227 160 184 161 256 161 252 161 192 162 184 162 252 162 145 163 184 163 192 163 184 164 145 164 119 164 161 165 184 165 117 165 117 166 184 166 119 166 117 167 119 167 116 167 175 168 137 168 120 168 186 169 175 169 120 169 120 170 137 170 115 170 244 171 175 171 186 171 244 172 197 172 175 172 137 173 149 173 115 173 115 174 149 174 118 174 149 175 135 175 118 175 244 176 221 176 197 176 179 177 135 177 149 177 244 178 254 178 221 178 179 179 211 179 135 179 254 180 253 180 221 180 221 181 253 181 233 181 212 182 211 182 179 182 233 183 253 183 212 183 253 184 211 184 212 184 257 185 253 185 254 185 186 186 145 186 192 186 126 187 145 187 186 187 120 188 145 188 126 188 120 189 119 189 145 189 120 190 116 190 119 190 117 191 105 191 106 191 117 192 116 192 105 192 105 193 104 193 106 193 135 194 117 194 118 194 135 195 161 195 117 195 211 196 161 196 135 196 118 197 114 197 115 197 115 198 21 198 120 198 115 199 24 199 21 199 114 200 24 200 115 200 118 201 24 201 114 201 118 202 25 202 24 202 20 203 10 203 25 203 25 204 10 204 24 204 25 205 26 205 20 205 10 206 11 206 24 206 26 207 13 207 20 207 26 208 9 208 13 208 24 209 11 209 21 209 23 210 15 210 9 210 11 211 17 211 21 211 8 212 15 212 23 212 17 213 7 213 21 213 16 214 7 214 17 214 8 215 12 215 15 215 8 216 27 216 12 216 12 217 27 217 18 217 27 218 22 218 18 218 14 219 19 219 6 219 18 220 22 220 5 220 22 221 19 221 5 221 5 222 19 222 14 222 29 223 21 223 7 223 87 224 89 224 73 224 53 225 21 225 45 225 45 226 21 226 29 226 63 227 21 227 53 227 73 228 105 228 63 228 63 229 105 229 21 229 89 230 105 230 73 230 105 231 116 231 21 231 116 232 120 232 21 232 101 233 102 233 89 233 93 234 101 234 89 234 89 235 102 235 105 235 105 236 102 236 104 236 93 237 94 237 101 237 99 238 94 238 93 238 92 239 96 239 102 239 102 240 96 240 104 240 99 241 95 241 94 241 99 242 91 242 95 242 92 243 90 243 96 243 98 244 90 244 92 244 91 245 100 245 95 245 98 246 103 246 90 246 97 247 103 247 98 247 95 248 100 248 97 248 100 249 103 249 97 249 118 250 106 250 25 250 117 251 106 251 118 251 106 252 104 252 25 252 25 253 49 253 26 253 25 254 52 254 49 254 25 255 69 255 52 255 104 256 69 256 25 256 26 257 49 257 37 257 104 258 72 258 69 258 104 259 88 259 72 259 104 260 96 260 88 260 6 261 30 261 7 261 7 262 30 262 29 262 6 263 33 263 30 263 19 264 33 264 6 264 19 265 22 265 35 265 27 266 34 266 22 266 8 267 32 267 27 267 8 268 23 268 32 268 9 269 28 269 23 269 9 270 31 270 28 270 26 271 31 271 9 271 30 272 39 272 29 272 30 273 33 273 39 273 37 274 31 274 26 274 28 275 31 275 37 275 34 276 27 276 38 276 36 277 32 277 28 277 38 278 27 278 36 278 27 279 32 279 36 279 50 280 42 280 43 280 29 281 39 281 45 281 51 282 54 282 53 282 51 283 58 283 54 283 55 284 50 284 56 284 68 285 67 285 69 285 70 286 61 286 66 286 69 287 59 287 52 287 67 288 59 288 69 288 67 289 56 289 59 289 66 290 56 290 67 290 66 291 55 291 56 291 61 292 55 292 66 292 65 293 55 293 61 293 65 294 57 294 55 294 60 295 57 295 65 295 60 296 58 296 57 296 64 297 58 297 60 297 64 298 54 298 58 298 62 299 54 299 64 299 63 300 53 300 62 300 62 301 53 301 54 301 71 302 74 302 73 302 71 303 78 303 74 303 75 304 70 304 76 304 88 305 79 305 72 305 86 306 79 306 88 306 86 307 76 307 79 307 85 308 76 308 86 308 85 309 75 309 76 309 84 310 75 310 85 310 82 311 75 311 84 311 82 312 77 312 75 312 80 313 77 313 82 313 80 314 78 314 77 314 83 315 78 315 80 315 83 316 74 316 78 316 81 317 74 317 83 317 87 318 73 318 81 318 81 319 73 319 74 319 90 320 86 320 88 320 87 321 81 321 89 321 96 322 90 322 88 322 103 323 86 323 90 323 103 324 85 324 86 324 103 325 84 325 85 325 100 326 84 326 103 326 100 327 82 327 84 327 91 328 82 328 100 328 91 329 80 329 82 329 99 330 80 330 91 330 99 331 83 331 80 331 93 332 83 332 99 332 93 333 81 333 83 333 93 334 89 334 81 334 72 335 68 335 69 335 79 336 68 336 72 336 79 337 67 337 68 337 76 338 67 338 79 338 76 339 66 339 67 339 70 340 66 340 76 340 75 341 61 341 70 341 77 342 61 342 75 342 77 343 65 343 61 343 78 344 65 344 77 344 78 345 60 345 65 345 78 346 64 346 60 346 71 347 64 347 78 347 71 348 62 348 64 348 71 349 63 349 62 349 73 350 63 350 71 350 52 351 44 351 49 351 59 352 44 352 52 352 59 353 47 353 44 353 56 354 47 354 59 354 56 355 43 355 47 355 50 356 43 356 56 356 55 357 42 357 50 357 57 358 42 358 55 358 57 359 40 359 42 359 58 360 40 360 57 360 58 361 46 361 40 361 58 362 48 362 46 362 51 363 48 363 58 363 51 364 41 364 48 364 51 365 45 365 41 365 53 366 45 366 51 366 44 367 37 367 49 367 44 368 28 368 37 368 47 369 28 369 44 369 47 370 36 370 28 370 43 371 36 371 47 371 42 372 36 372 43 372 42 373 38 373 36 373 42 374 34 374 38 374 40 375 34 375 42 375 46 376 35 376 40 376 40 377 35 377 34 377 46 378 33 378 35 378 48 379 33 379 46 379 41 380 33 380 48 380 45 381 39 381 41 381 41 382 39 382 33 382 32 383 23 383 28 383 35 384 22 384 34 384 33 385 19 385 35 385 101 386 111 386 102 386 101 387 112 387 111 387 94 388 112 388 101 388 94 389 108 389 112 389 94 390 109 390 108 390 95 391 109 391 94 391 95 392 107 392 109 392 97 393 107 393 95 393 97 394 110 394 107 394 98 395 110 395 97 395 92 396 113 396 98 396 98 397 113 397 110 397 102 398 113 398 92 398 102 399 111 399 113 399 112 400 108 400 111 400 108 401 109 401 111 401 111 402 110 402 113 402 109 403 110 403 111 403 109 404 107 404 110 404 20 405 13 405 10 405 13 406 4 406 10 406 10 407 4 407 11 407 4 408 17 408 11 408 4 409 16 409 17 409 1 410 7 410 4 410 4 411 7 411 16 411 1 412 6 412 7 412 1 413 14 413 6 413 1 414 5 414 14 414 2 415 18 415 5 415 2 416 12 416 18 416 3 417 15 417 2 417 2 418 15 418 12 418 3 419 9 419 15 419 0 420 9 420 3 420 9 421 0 421 13 421 13 422 0 422 4 422 3 423 2 423 0 423 0 424 2 424 4 424 2 425 1 425 4 425 2 426 5 426 1 426 120 427 126 427 186 427 244 428 252 428 254 428 186 429 192 429 244 429 244 430 192 430 252 430 252 431 256 431 254 431 212 432 217 432 236 432 233 433 212 433 236 433 221 434 233 434 236 434 221 435 236 435 204 435 197 436 221 436 204 436 197 437 204 437 188 437 175 438 197 438 188 438 175 439 188 439 172 439 137 440 175 440 146 440 175 441 172 441 146 441 137 442 146 442 139 442 149 443 137 443 139 443 149 444 139 444 174 444 179 445 149 445 174 445 179 446 174 446 195 446 212 447 179 447 195 447 212 448 195 448 217 448 188 449 204 449 172 449 172 450 204 450 146 450 204 451 236 451 146 451 146 452 236 452 139 452 139 453 195 453 174 453 236 454 195 454 139 454 236 455 217 455 195 455 370 456 352 456 348 456 314 457 328 457 322 457 322 458 328 458 325 458 314 459 332 459 328 459 323 460 332 460 314 460 323 461 335 461 332 461 315 462 326 462 323 462 323 463 326 463 335 463 317 464 326 464 315 464 317 465 333 465 326 465 320 466 333 466 317 466 320 467 334 467 333 467 320 468 330 468 334 468 320 469 331 469 330 469 319 470 331 470 320 470 316 471 331 471 319 471 316 472 329 472 331 472 316 473 327 473 329 473 324 474 327 474 316 474 292 475 309 475 300 475 300 476 309 476 303 476 292 477 310 477 309 477 302 478 310 478 292 478 302 479 313 479 310 479 293 480 304 480 302 480 302 481 304 481 313 481 294 482 304 482 293 482 294 483 311 483 304 483 298 484 311 484 294 484 298 485 312 485 311 485 298 486 307 486 312 486 298 487 308 487 307 487 297 488 308 488 298 488 295 489 308 489 297 489 295 490 306 490 308 490 295 491 305 491 306 491 301 492 305 492 295 492 280 493 289 493 281 493 280 494 291 494 289 494 268 495 285 495 280 495 280 496 285 496 291 496 268 497 286 497 285 497 270 498 286 498 268 498 270 499 287 499 286 499 269 500 287 500 270 500 269 501 290 501 287 501 269 502 288 502 290 502 279 503 288 503 269 503 279 504 284 504 288 504 273 505 284 505 279 505 283 506 292 506 300 506 289 507 292 507 283 507 289 508 299 508 292 508 291 509 299 509 289 509 291 510 293 510 299 510 285 511 293 511 291 511 285 512 294 512 293 512 287 513 294 513 285 513 287 514 296 514 294 514 290 515 296 515 287 515 290 516 297 516 296 516 288 517 295 517 290 517 290 518 295 518 297 518 288 519 301 519 295 519 284 520 301 520 288 520 361 521 373 521 356 521 356 522 373 522 365 522 365 523 373 523 363 523 363 524 373 524 358 524 373 525 362 525 358 525 377 526 355 526 359 526 374 527 355 527 377 527 374 528 357 528 355 528 374 529 371 529 357 529 376 530 371 530 374 530 376 531 370 531 371 531 370 532 376 532 361 532 376 533 373 533 361 533 373 534 375 534 362 534 375 535 369 535 362 535 375 536 372 536 369 536 377 537 364 537 372 537 377 538 360 538 364 538 360 539 377 539 359 539 376 540 374 540 373 540 374 541 375 541 373 541 377 542 375 542 374 542 377 543 372 543 375 543 155 544 152 544 130 544 171 545 163 545 155 545 152 546 163 546 130 546 171 547 194 547 163 547 132 548 162 548 150 548 163 549 162 549 130 549 130 550 162 550 132 550 223 551 203 551 194 551 194 552 203 552 163 552 150 553 166 553 132 553 160 554 166 554 150 554 163 555 203 555 162 555 162 556 166 556 160 556 223 557 243 557 224 557 224 558 243 558 203 558 162 559 183 559 166 559 203 560 214 560 162 560 214 561 205 561 162 561 243 562 214 562 203 562 162 563 205 563 183 563 243 564 232 564 214 564 205 565 201 565 183 565 215 566 201 566 205 566 214 567 232 567 215 567 215 568 232 568 201 568 132 569 133 569 130 569 132 570 134 570 133 570 166 571 134 571 132 571 166 572 178 572 134 572 183 573 178 573 166 573 183 574 187 574 178 574 201 575 187 575 183 575 201 576 219 576 187 576 232 577 219 577 201 577 232 578 248 578 219 578 243 579 248 579 232 579 243 580 238 580 248 580 223 581 238 581 243 581 194 582 198 582 223 582 223 583 198 583 238 583 171 584 177 584 194 584 194 585 177 585 198 585 171 586 133 586 177 586 155 587 133 587 171 587 130 588 133 588 155 588 144 589 177 589 133 589 133 590 124 590 144 590 133 591 134 591 124 591 134 592 148 592 124 592 198 593 228 593 238 593 134 594 178 594 148 594 228 595 248 595 238 595 187 596 199 596 178 596 219 597 199 597 187 597 248 598 240 598 219 598 219 599 240 599 199 599 144 600 198 600 177 600 144 601 228 601 198 601 229 602 228 602 230 602 230 603 228 603 226 603 231 604 229 604 230 604 241 605 231 605 230 605 241 606 242 606 231 606 241 607 230 607 226 607 158 608 128 608 131 608 168 609 173 609 131 609 131 610 173 610 158 610 128 611 122 611 131 611 190 612 182 612 168 612 168 613 182 613 173 613 128 614 125 614 122 614 190 615 193 615 182 615 190 616 210 616 193 616 190 617 218 617 210 617 125 618 129 618 122 618 125 619 147 619 129 619 218 620 237 620 210 620 147 621 169 621 129 621 218 622 247 622 237 622 247 623 246 623 237 623 247 624 250 624 246 624 185 625 143 625 169 625 169 626 143 626 129 626 246 627 250 627 239 627 250 628 241 628 239 628 239 629 241 629 213 629 213 630 241 630 200 630 200 631 226 631 185 631 241 632 226 632 200 632 185 633 226 633 143 633 143 634 140 634 129 634 121 635 122 635 129 635 140 636 121 636 129 636 127 637 122 637 121 637 127 638 131 638 122 638 176 639 131 639 127 639 176 640 168 640 131 640 176 641 190 641 168 641 202 642 190 642 176 642 202 643 218 643 190 643 245 644 218 644 202 644 245 645 247 645 218 645 251 646 247 646 245 646 251 647 250 647 247 647 241 648 250 648 251 648 241 649 251 649 242 649 251 650 216 650 242 650 216 651 189 651 242 651 231 652 242 652 140 652 242 653 189 653 140 653 189 654 154 654 140 654 154 655 121 655 140 655 167 656 157 656 172 656 167 657 146 657 157 657 136 658 146 658 167 658 136 659 138 659 146 659 154 660 138 660 136 660 154 661 170 661 138 661 189 662 170 662 154 662 189 663 196 663 170 663 216 664 196 664 189 664 216 665 217 665 196 665 154 666 136 666 121 666 121 667 136 667 127 667 136 668 167 668 127 668 167 669 176 669 127 669 216 670 251 670 234 670 191 671 176 671 167 671 251 672 245 672 234 672 191 673 202 673 176 673 209 674 202 674 191 674 234 675 245 675 209 675 209 676 245 676 202 676 234 677 235 677 216 677 216 678 235 678 217 678 209 679 207 679 234 679 234 680 207 680 235 680 191 681 207 681 209 681 191 682 181 682 207 682 167 683 181 683 191 683 167 684 172 684 181 684 170 685 146 685 138 685 157 686 181 686 172 686 146 687 181 687 157 687 217 688 235 688 196 688 170 689 207 689 146 689 196 690 207 690 170 690 146 691 207 691 181 691 235 692 207 692 196 692 229 693 231 693 140 693 229 694 141 694 249 694 229 695 140 695 141 695 249 696 141 696 123 696 229 697 249 697 228 697 249 698 248 698 228 698 148 699 142 699 124 699 124 700 142 700 123 700 178 701 180 701 148 701 148 702 180 702 142 702 199 703 180 703 178 703 199 704 225 704 180 704 240 705 225 705 199 705 240 706 249 706 225 706 248 707 249 707 240 707 144 708 140 708 143 708 144 709 141 709 140 709 123 710 141 710 124 710 141 711 144 711 124 711 143 712 226 712 144 712 226 713 228 713 144 713 225 714 249 714 180 714 180 715 249 715 142 715 142 716 249 716 123 716 213 717 200 717 185 717 158 718 125 718 128 718 125 719 169 719 147 719 193 720 237 720 246 720 239 721 213 721 246 721 237 722 193 722 210 722 158 723 173 723 182 723 158 724 182 724 193 724 246 725 158 725 193 725 169 726 213 726 185 726 158 727 169 727 125 727 158 728 246 728 169 728 246 729 213 729 169 729 203 730 223 730 220 730 203 731 220 731 206 731 224 732 203 732 206 732 224 733 206 733 220 733 223 734 224 734 220 734 155 735 164 735 151 735 152 736 155 736 151 736 152 737 151 737 159 737 163 738 152 738 159 738 163 739 159 739 164 739 155 740 163 740 164 740 164 741 159 741 151 741 162 742 160 742 165 742 160 743 156 743 165 743 162 744 165 744 153 744 150 745 162 745 153 745 150 746 153 746 156 746 160 747 150 747 156 747 165 748 156 748 153 748 214 749 222 749 208 749 205 750 214 750 208 750 215 751 205 751 208 751 214 752 215 752 222 752 215 753 208 753 222 753</p>
        </triangles>
      </mesh>
    </geometry>
  </library_geometries>
  <library_materials>
    <material id="mat_gimbal_joint" name="gimbal_joint">
      <instance_effect url="#effect_gimbal_joint"/>
    </material>
  </library_materials>
  <library_visual_scenes>
    <visual_scene id="scene">
      <node id="node0" name="node0">
        <instance_geometry url="#geometry0">
          <bind_material>
            <technique_common>
              <instance_material symbol="ref_gimbal_joint" target="#mat_gimbal_joint"/>
            </technique_common>
          </bind_material>
        </instance_geometry>
      </node>
    </visual_scene>
  </library_visual_scenes>
  <scene>
    <instance_visual_scene url="#scene"/>
  </scene>
</COLLADA>
